<svg width="59" height="14" viewBox="0 0 59 14" fill="none" xmlns="http://www.w3.org/2000/svg">
<path d="M23.2412 4.50294C23.601 4.72125 23.9054 5.02142 24.099 5.43074C24.3204 5.84006 24.4311 6.33127 24.4311 6.87699C24.4311 7.42278 24.3204 7.8867 24.0714 8.29601C23.85 8.70531 23.5179 9.00551 23.1028 9.19648C22.6878 9.41482 22.1897 9.52399 21.6639 9.52399C21.3595 9.52399 21.0828 9.46938 20.8061 9.36026C20.5293 9.2784 20.2803 9.11462 20.0866 8.92365V11.7616H18.4816V4.28463H19.8652L20.0036 4.88498C20.6124 4.39379 21.2765 4.14819 21.9683 4.14819C22.4387 4.14819 22.8815 4.25734 23.2412 4.50294ZM22.3557 7.8867C22.6324 7.64111 22.7708 7.31361 22.7708 6.9043C22.7708 6.49499 22.6324 6.16754 22.3834 5.89464C22.1344 5.62176 21.8023 5.5126 21.4426 5.5126C21.1382 5.5126 20.8614 5.56718 20.64 5.70362C20.4187 5.81277 20.2527 6.00379 20.1143 6.24941V7.47733C20.1973 7.72297 20.3633 7.91395 20.5571 8.05042C20.7784 8.18684 21.0275 8.2687 21.3319 8.2687C21.7469 8.2687 22.079 8.13228 22.3557 7.8867Z" fill="#FCFCFD"/>
<path d="M25.3718 5.45748C25.6209 5.07544 25.9529 4.74798 26.3957 4.52967C26.8384 4.31137 27.3366 4.17493 27.89 4.17493C28.4434 4.17493 28.9415 4.28408 29.3843 4.52967C29.7994 4.74798 30.1314 5.07544 30.3805 5.48476C30.6295 5.89408 30.7402 6.33071 30.7402 6.84918C30.7402 7.36766 30.6295 7.80427 30.3805 8.21358C30.1314 8.62289 29.827 8.95034 29.3843 9.16867C28.9692 9.38695 28.4434 9.52342 27.89 9.52342C27.3366 9.52342 26.8384 9.41426 26.3957 9.19598C25.9529 8.97764 25.6209 8.6775 25.3718 8.26814C25.1504 7.85883 25.0121 7.39491 25.0121 6.84918C25.0121 6.33071 25.1504 5.8668 25.3718 5.45748ZM27.0045 7.83152C27.2259 8.10441 27.5303 8.21358 27.89 8.21358C28.2497 8.21358 28.5541 8.07716 28.7755 7.83152C28.9969 7.58594 29.1076 7.23118 29.1076 6.84918C29.1076 6.43987 28.9969 6.11239 28.7755 5.8668C28.5264 5.59392 28.2497 5.45748 27.8623 5.45748C27.5026 5.45748 27.2259 5.59392 26.9768 5.83951C26.7555 6.11239 26.6448 6.43987 26.6448 6.84918C26.6448 7.23118 26.7555 7.55869 27.0045 7.83152Z" fill="#FCFCFD"/>
<path d="M33.3416 0.409424V9.38726H31.7367V0.409424H33.3416Z" fill="#FCFCFD"/>
<path d="M39.9274 4.42072L36.6622 11.7885H35.1126L36.3301 9.14159L34.0057 4.42072H35.832L37.1603 7.36782L38.4886 4.42072H39.9274Z" fill="#FCFCFD"/>
<path d="M46.0703 4.42052V9.38695C46.0703 9.85087 45.9319 10.2875 45.6552 10.6695C45.3785 11.0515 45.0187 11.3517 44.5483 11.57C44.0779 11.7884 43.5798 11.8975 43.0264 11.8975C42.6113 11.8975 42.2516 11.8429 41.9471 11.7611C41.6427 11.6519 41.3937 11.5427 41.2 11.4336C40.9787 11.2971 40.7573 11.1334 40.5082 10.9151L41.4491 9.82357C41.6705 10.0419 41.9195 10.2056 42.1409 10.3148C42.3622 10.4239 42.6666 10.5058 42.9987 10.5058C43.4138 10.5058 43.7458 10.3967 44.0226 10.2056C44.2993 10.0146 44.4376 9.71445 44.4376 9.3597V8.6502C44.2716 8.89578 44.0502 9.11412 43.7182 9.27784C43.3861 9.44156 42.9987 9.52343 42.556 9.52343C42.1132 9.52343 41.6705 9.41426 41.283 9.16867C40.8956 8.95034 40.5912 8.62289 40.3422 8.21358C40.1208 7.80427 39.9825 7.36766 39.9825 6.87649C39.9825 6.38526 40.0932 5.92137 40.3422 5.51205C40.5912 5.10273 40.8956 4.77527 41.3107 4.52967C41.6981 4.28408 42.1132 4.17493 42.556 4.17493C42.971 4.17493 43.3307 4.2295 43.6628 4.33866C43.9949 4.44781 44.2439 4.61154 44.41 4.80256L44.576 4.42052H46.0703ZM44.4376 7.47683V6.24884C44.3269 6.00324 44.1609 5.81222 43.9119 5.67578C43.6628 5.53934 43.3861 5.45748 43.054 5.45748C42.6666 5.45748 42.3346 5.59392 42.0578 5.83951C41.7811 6.0851 41.6427 6.41257 41.6427 6.82188C41.6427 7.20394 41.7811 7.55869 42.0578 7.83152C42.3346 8.10441 42.6666 8.24089 43.054 8.24089C43.6905 8.21358 44.1609 7.968 44.4376 7.47683Z" fill="#FCFCFD"/>
<path d="M47.399 5.45803C47.648 5.04871 47.9801 4.74853 48.4228 4.50294C48.8656 4.28463 49.3637 4.14819 49.9171 4.14819C50.4706 4.14819 50.9687 4.25734 51.4114 4.50294C51.8265 4.72125 52.1586 5.04871 52.4076 5.45803C52.629 5.86735 52.7673 6.30396 52.7673 6.82244C52.7673 7.34091 52.6567 7.77753 52.4076 8.18684C52.1862 8.59615 51.8542 8.92365 51.4114 9.14193C50.9963 9.36027 50.4706 9.49668 49.9171 9.49668C49.3637 9.49668 48.8656 9.38751 48.4228 9.16924C47.9801 8.9509 47.648 8.65076 47.399 8.24145C47.1499 7.83209 47.0392 7.36822 47.0392 6.79513C47.0392 6.33127 47.1499 5.86735 47.399 5.45803ZM49.004 7.83209C49.2254 8.10498 49.5297 8.21414 49.8894 8.21414C50.2492 8.21414 50.5536 8.07767 50.7749 7.83209C50.9963 7.5865 51.107 7.23175 51.107 6.84974C51.107 6.44038 50.9963 6.11294 50.7749 5.86735C50.5536 5.62176 50.2492 5.48532 49.8894 5.48532C49.5297 5.48532 49.253 5.62176 49.004 5.86735C48.7549 6.11294 48.6442 6.46769 48.6442 6.84974C48.6719 7.23175 48.7826 7.55919 49.004 7.83209Z" fill="#FCFCFD"/>
<path d="M58.4405 4.58425C58.7726 4.85713 58.9106 5.21188 58.9381 5.64849V9.38695H57.3057V6.24884C57.278 5.75765 57.029 5.51205 56.5585 5.51205C56.1988 5.51205 55.8945 5.67578 55.6731 6.03053C55.4517 6.38526 55.341 6.82188 55.341 7.34035V9.38695H53.736V4.42052H55.2026L55.3133 5.21188C55.507 4.88442 55.7561 4.63883 56.0881 4.44781C56.4202 4.25679 56.8076 4.17493 57.2504 4.17493C57.7207 4.17493 58.1358 4.31137 58.4405 4.58425Z" fill="#FCFCFD"/>
<path d="M11.6191 4.33926C11.3424 4.17553 10.9826 4.17553 10.6783 4.33926L8.51982 5.59452L7.05321 6.41319L4.89482 7.66842C4.61809 7.83214 4.25836 7.83214 3.95397 7.66842L2.23831 6.68602C1.96159 6.5223 1.76788 6.22216 1.76788 5.89469V3.95723C1.76788 3.62977 1.93392 3.3296 2.23831 3.16587L3.92629 2.21078C4.20302 2.04706 4.56275 2.04706 4.86714 2.21078L6.55514 3.16587C6.83184 3.3296 7.02556 3.62977 7.02556 3.95723V5.21249L8.49217 4.36655V3.1113C8.49217 2.78383 8.32616 2.48366 8.02175 2.31994L4.89482 0.518915C4.61809 0.355186 4.25836 0.355186 3.95397 0.518915L0.771693 2.31994C0.467301 2.48366 0.30127 2.78383 0.30127 3.1113V6.74063C0.30127 7.06808 0.467301 7.36828 0.771693 7.532L3.95397 9.33302C4.23068 9.49674 4.59043 9.49674 4.89482 9.33302L7.05321 8.10503L8.51982 7.25911L10.6783 6.03113C10.955 5.8674 11.3147 5.8674 11.6191 6.03113L13.3071 6.98622C13.5838 7.14994 13.7775 7.45014 13.7775 7.77759V9.71502C13.7775 10.0425 13.6115 10.3427 13.3071 10.5064L11.6191 11.4888C11.3424 11.6525 10.9826 11.6525 10.6783 11.4888L8.99029 10.5337C8.71354 10.37 8.51982 10.0698 8.51982 9.74232V8.48709L7.05321 9.33302V10.5882C7.05321 10.9157 7.21928 11.2159 7.52363 11.3796L10.7059 13.1806C10.9826 13.3444 11.3424 13.3444 11.6468 13.1806L14.8291 11.3796C15.1058 11.2159 15.2995 10.9157 15.2995 10.5882V6.95891C15.2995 6.63146 15.1334 6.33132 14.8291 6.1676L11.6191 4.33926Z" fill="#FCFCFD"/>
</svg>
