<svg width="52" height="13" viewBox="0 0 52 13" fill="none" xmlns="http://www.w3.org/2000/svg">
<g clip-path="url(#clip0_1_692)">
<path d="M12.5055 1.66806L10.7981 2.57272L2.55344 6.94006C2.52556 6.71892 2.51154 6.49613 2.51145 6.2731C2.51258 5.38322 2.73723 4.50908 3.16315 3.73728C3.58908 2.96548 4.20149 2.32279 4.93974 1.87287C5.67799 1.42295 6.51645 1.18142 7.37208 1.1722C8.2277 1.16298 9.07079 1.38638 9.81785 1.82029L10.7951 1.30245L10.9409 1.22509C10.0457 0.54933 8.98819 0.144149 7.88538 0.0543268C6.78256 -0.0354952 5.67734 0.193539 4.69186 0.716117C3.70638 1.23869 2.87902 2.03447 2.30122 3.01548C1.72342 3.9965 1.41769 5.12455 1.4178 6.27497C1.4178 6.43386 1.4236 6.59213 1.4352 6.74977C1.45144 6.973 1.40383 7.19625 1.29837 7.39142C1.1929 7.58659 1.03428 7.74495 0.842478 7.84659L0.327148 8.11986V9.3945L1.84434 8.59028L2.33567 8.32949L2.81981 8.07307L11.5114 3.4674L12.4881 2.95018L14.5068 1.88019V0.606174L12.5055 1.66806Z" fill="#FCFCFD"/>
<path d="M14.5068 3.1554L3.31354 9.08249L2.33687 9.60096L0.327148 10.666V11.9394L2.32308 10.8818L4.03044 9.97717L12.2835 5.6036C12.3114 5.8262 12.3254 6.05044 12.3255 6.27492C12.325 7.16583 12.1004 8.0411 11.6741 8.81385C11.2477 9.58659 10.6344 10.2299 9.89513 10.68C9.15582 11.13 8.31617 11.3712 7.45955 11.3794C6.60293 11.3877 5.75912 11.1628 5.01191 10.7271L4.95192 10.7602L3.89246 11.3217C4.78749 11.9975 5.84474 12.4028 6.94738 12.4928C8.05003 12.5828 9.15515 12.3541 10.1406 11.8319C11.1261 11.3097 11.9536 10.5143 12.5316 9.53361C13.1097 8.55295 13.4158 7.42518 13.4162 6.27492C13.4162 6.11458 13.4102 5.95423 13.3988 5.79576C13.3825 5.5726 13.4301 5.34943 13.5354 5.15429C13.6408 4.95915 13.7992 4.80073 13.9909 4.69894L14.5068 4.42567V3.1554Z" fill="#FCFCFD"/>
</g>
<path d="M19.6555 4.97331C19.6555 4.50434 19.7681 4.09631 19.9934 3.7492C20.2223 3.4021 20.5399 3.13438 20.9461 2.94606C21.356 2.75774 21.8342 2.66357 22.3807 2.66357C22.9087 2.66357 23.3795 2.75589 23.7931 2.94052C24.2067 3.12515 24.5279 3.38733 24.7569 3.72705C24.9858 4.06677 25.104 4.45634 25.1114 4.89576H23.3998C23.3924 4.64466 23.2854 4.44157 23.0786 4.28648C22.8718 4.13139 22.6096 4.05384 22.292 4.05384C22.0114 4.05384 21.7862 4.11847 21.6163 4.24771C21.4464 4.37695 21.3615 4.5505 21.3615 4.76837C21.3615 4.97146 21.4335 5.1247 21.5775 5.2281C21.7252 5.33149 21.9431 5.41827 22.2311 5.48843L23.3777 5.74876C24.0202 5.90015 24.5021 6.16048 24.8233 6.52975C25.1446 6.89901 25.3052 7.34951 25.3052 7.88124C25.3052 8.35759 25.1852 8.77301 24.9452 9.1275C24.7089 9.482 24.3728 9.7571 23.9371 9.9528C23.5051 10.1448 23.001 10.2408 22.425 10.2408C21.5646 10.2408 20.8667 10.0322 20.3313 9.61493C19.7995 9.19766 19.5078 8.63085 19.4561 7.91448H21.1566C21.1787 8.20989 21.3043 8.43883 21.5332 8.60131C21.7658 8.76378 22.0705 8.84502 22.4471 8.84502C22.7942 8.84502 23.0657 8.77486 23.2614 8.63454C23.4608 8.49422 23.5605 8.3022 23.5605 8.05849C23.5605 7.86278 23.4958 7.71138 23.3666 7.6043C23.2374 7.49352 23.0564 7.41044 22.8238 7.35505L21.6218 7.07256C20.9424 6.91378 20.4439 6.65345 20.1263 6.29157C19.8125 5.9297 19.6555 5.49027 19.6555 4.97331Z" fill="#FCFCFD"/>
<path d="M29.4096 6.28049H28.4458V10.0913H26.8617V6.28049H25.92V4.97331H26.8617V3.6495H28.4458V4.97331H29.4096V6.28049Z" fill="#FCFCFD"/>
<path d="M35.1313 8.44622C35.0242 8.98165 34.7343 9.41553 34.2617 9.74786C33.789 10.0765 33.224 10.2408 32.5668 10.2408C32.0313 10.2408 31.5587 10.1282 31.1488 9.90295C30.7389 9.67401 30.4213 9.3546 30.1961 8.94472C29.9708 8.53115 29.8582 8.0548 29.8582 7.51568C29.8582 6.97286 29.9708 6.49467 30.1961 6.08109C30.4213 5.66752 30.7389 5.34995 31.1488 5.1284C31.5587 4.90684 32.0203 4.79606 32.5335 4.79606C33.0394 4.79606 33.4881 4.9013 33.8795 5.11178C34.2746 5.32226 34.5792 5.61582 34.7934 5.99247C35.0113 6.36542 35.1202 6.79008 35.1202 7.26642C35.1202 7.53229 35.0981 7.76308 35.0537 7.95879H31.4202C31.435 8.26158 31.5458 8.50345 31.7525 8.68439C31.963 8.86533 32.2344 8.9558 32.5668 8.9558C32.8179 8.9558 33.0339 8.90964 33.2148 8.81732C33.3958 8.72132 33.5195 8.59761 33.5859 8.44622H35.1313ZM33.4973 6.92855C33.4899 6.67007 33.3902 6.46513 33.1982 6.31373C33.0099 6.16233 32.7699 6.08663 32.4781 6.08663C32.1827 6.08663 31.939 6.16233 31.747 6.31373C31.5587 6.46513 31.4571 6.67007 31.4424 6.92855H33.4973Z" fill="#FCFCFD"/>
<path d="M36.0341 2.30908H37.6183V10.0913H36.0341V2.30908Z" fill="#FCFCFD"/>
<path d="M38.8479 2.30908H40.432V10.0913H38.8479V2.30908Z" fill="#FCFCFD"/>
<path d="M47.0843 4.97331V10.0913H45.5611V9.50415C45.3875 9.7294 45.1457 9.90849 44.8355 10.0414C44.5253 10.1744 44.1893 10.2408 43.8274 10.2408C43.3511 10.2408 42.9283 10.1301 42.559 9.90849C42.1934 9.68324 41.9109 9.37122 41.7115 8.97241C41.5121 8.56992 41.4124 8.1028 41.4124 7.57106C41.4124 7.01717 41.5195 6.53159 41.7337 6.11433C41.9479 5.69706 42.2488 5.37396 42.6365 5.14501C43.028 4.91238 43.4729 4.79606 43.9714 4.79606C44.7062 4.79606 45.2657 5.02131 45.6497 5.47181L45.755 4.97331H47.0843ZM44.2484 8.81178C44.6176 8.81178 44.9167 8.69362 45.1457 8.45729C45.3783 8.21727 45.4946 7.89971 45.4946 7.5046C45.4946 7.12057 45.3783 6.81223 45.1457 6.5796C44.9167 6.34327 44.6176 6.22511 44.2484 6.22511C43.8791 6.22511 43.5837 6.34512 43.3621 6.58514C43.1406 6.82146 43.0298 7.13164 43.0298 7.51568C43.0298 7.89971 43.1406 8.21173 43.3621 8.45175C43.5874 8.69177 43.8828 8.81178 44.2484 8.81178Z" fill="#FCFCFD"/>
<path d="M51.0612 4.929C51.2274 4.929 51.3862 4.94377 51.5376 4.97331V6.34696C51.4859 6.33958 51.4065 6.33588 51.2994 6.33588C50.8452 6.33588 50.4944 6.45589 50.247 6.69591C50.0033 6.93224 49.8815 7.26642 49.8815 7.69846V10.0913H48.2973V4.97331H49.7485L49.8482 5.66567C49.9332 5.42196 50.0827 5.23918 50.2969 5.11732C50.511 4.99177 50.7658 4.929 51.0612 4.929Z" fill="#FCFCFD"/>
<defs>
<clipPath id="clip0_1_692">
<rect width="14.1797" height="12.4781" fill="white" transform="translate(0.327148 0.0358887)"/>
</clipPath>
</defs>
</svg>
